# xmcd
#
# Track frame offsets: 
#        150
#        20333
#        35159
#        48760
#        69411
#        83953
#        102732
#        117356
#        129709
#        141170
#        151760
#        164019
#        177070
#        196597
#        211723
#
# Disc length: 2992 seconds
#
# Revision: 0
# Processed by: cddbd v1.5.2PL0 Copyright (c) Steve Scherf et al.
# Submitted via: ExactAudioCopyFreeDBPlugin 1.0
#
DISCID=ca0bae0f
DTITLE=Blandat - Skön julstämning
DYEAR=2011
DGENRE=Jul
TTITLE0=Christer Sjögren - O helga natt
TTITLE1=Tommy Körberg and Sissel Kyrkjebø - Julen är här
TTITLE2=Jessica Andersson - Jag drömmer om en jul hemma
TTITLE3=Lasse Stefanz - Ljusen i advent
TTITLE4=Hans Martin - När ikväll jag tänder ett ljus
TTITLE5=Åsa Jinder - Det strålar en stjärna
TTITLE6=Sanna Nielsen - Stilla Natt
TTITLE7=Kikki Danielsson - Vår vackra vita vintervärld - Jingeling-Tin
TTITLE7=geling
TTITLE8=Vikingarna (Christer Sjögren) - Bella Notte
TTITLE9=Jan Malmsjö - Ser du stjärnan i det blå
TTITLE10=Anna-Lena Löfgren och Artur Erikson - Jul, jul, strålande jul
TTITLE11=Glenmark and Glenmark - Nu tändas tusen juleljus
TTITLE12=Scotts - Den julen (Last Christmas)
TTITLE13=Magnus Carlsson duett med Molly Sandén - Julens tid är här
TTITLE14=Just D - Juligen
EXTD=
EXTT0=
EXTT1=
EXTT2=
EXTT3=
EXTT4=
EXTT5=
EXTT6=
EXTT7=
EXTT8=
EXTT9=
EXTT10=
EXTT11=
EXTT12=
EXTT13=
EXTT14=
PLAYORDER=
